 <svg version="1.0" xmlns="http://www.w3.org/2000/svg"
 width="700.000000pt" height="300.000000pt" viewBox="0 0 700.000000 300.000000"
 preserveAspectRatio="xMidYMid meet">
<g transform="translate(0.000000,380.000000) scale(0.100000,-0.080000)" fill="#303952" stroke="none">
<path d="M965 2631 c-14 -17 -20 -18 -36 -8 -26 16 -37 -2 -33 -50 1 -19 0
-32 -3 -29 -4 3 -11 2 -17 -4 -8 -6 -13 0 -14 23 -2 18 -11 41 -22 51 -19 19
-19 19 -26 0 -16 -46 -29 -74 -37 -74 -5 0 -5 5 -2 10 3 6 1 10 -4 10 -6 0
-11 13 -11 29 0 29 -19 56 -21 29 0 -7 -3 -29 -6 -48 -3 -19 -5 -47 -5 -62 0
-27 -1 -27 -24 -10 -13 9 -24 23 -24 30 0 26 -20 10 -20 -17 0 -42 -26 -47
-40 -8 -10 28 -12 30 -21 15 -12 -21 -29 -24 -29 -5 0 8 -8 22 -19 31 -18 16
-20 15 -44 -14 -26 -30 -47 -39 -47 -20 0 6 -4 10 -9 10 -4 0 -16 -29 -26 -65
-9 -36 -23 -65 -30 -65 -6 0 -18 19 -25 43 -7 23 -17 46 -21 50 -9 12 -32 -60
-25 -78 3 -8 2 -15 -3 -15 -13 0 -41 47 -41 70 0 11 -4 20 -10 20 -5 0 -10
-13 -10 -30 0 -16 -4 -30 -9 -30 -4 0 -6 -11 -4 -24 4 -18 0 -25 -13 -28 -14
-2 -25 10 -43 44 -14 27 -28 48 -32 48 -14 0 -29 -38 -22 -56 4 -12 2 -15 -8
-12 -15 5 -35 -40 -45 -102 -7 -43 -23 -75 -24 -48 0 31 -43 109 -52 95 -4 -6
-8 -535 -8 -1174 l0 -1163 3500 0 3500 0 0 689 c0 625 -2 690 -17 695 -12 5
-13 3 -5 -7 9 -10 6 -18 -10 -31 -15 -13 -19 -14 -16 -4 3 8 -2 25 -12 38
l-18 23 -17 -36 c-9 -20 -14 -44 -11 -54 6 -16 6 -16 -12 0 -10 9 -24 17 -32
17 -9 0 -10 3 -1 14 7 8 8 15 2 18 -5 1 -12 21 -15 43 -9 73 -11 80 -21 87 -5
4 -10 11 -11 15 -2 24 -17 63 -24 63 -4 0 -11 -11 -14 -25 -4 -14 -10 -25 -15
-25 -5 0 -7 -10 -3 -22 3 -13 1 -19 -5 -15 -6 4 -15 -5 -21 -19 -10 -20 -9
-26 3 -30 8 -4 15 -10 15 -15 0 -6 -8 -5 -19 1 -17 8 -19 7 -16 -15 2 -26 -20
-36 -27 -13 -6 18 -31 -30 -35 -69 -2 -18 -8 -45 -13 -59 -9 -22 -13 -24 -25
-14 -8 7 -15 21 -15 31 0 11 -9 27 -19 36 -14 12 -18 24 -14 49 3 18 2 41 -2
51 -5 10 -9 25 -11 33 -2 9 -10 31 -17 49 l-14 33 -8 -28 c-5 -16 -9 -35 -11
-43 -6 -33 -22 -31 -28 3 -4 20 -11 36 -16 36 -14 0 -31 -36 -33 -70 -1 -17
-4 -30 -7 -30 -14 1 -32 19 -26 28 3 6 2 14 -4 17 -6 4 -18 24 -26 46 l-16 39
-20 -25 c-13 -16 -17 -32 -13 -46 5 -14 3 -19 -3 -15 -6 3 -13 2 -17 -3 -3 -5
3 -14 12 -20 10 -6 13 -11 8 -11 -13 0 -45 -52 -50 -81 -6 -31 -15 -36 -29
-17 -7 10 -16 15 -19 11 -10 -10 -38 18 -35 36 1 9 -5 30 -14 46 l-17 30 -9
-25 c-5 -14 -7 -29 -4 -34 3 -5 0 -6 -6 -2 -7 4 -12 2 -12 -3 0 -22 -20 -10
-26 15 l-7 27 -13 -24 c-7 -13 -14 -37 -14 -54 -1 -43 -9 -51 -58 -54 -37 -2
-44 1 -49 18 -3 12 -9 21 -14 21 -5 0 -9 6 -9 14 0 27 -61 147 -73 143 -7 -2
-18 -22 -25 -45 -15 -47 -32 -55 -32 -16 0 14 -4 23 -9 20 -21 -13 -41 7 -41
40 0 19 -5 34 -11 34 -5 0 -8 4 -5 9 7 11 -28 78 -56 108 l-22 23 -28 -27 -28
-27 0 29 c0 22 -3 26 -12 17 -14 -14 -37 12 -38 42 0 27 -39 66 -58 59 -20 -8
-52 -40 -52 -53 0 -6 -7 -10 -15 -10 -9 0 -18 -7 -21 -15 -4 -8 -13 -15 -21
-15 -8 0 -12 4 -9 9 3 4 -1 17 -9 27 -12 16 -16 17 -24 4 -5 -8 -8 -17 -5 -21
2 -4 -1 -11 -7 -14 -6 -4 -13 2 -16 14 -7 27 -23 17 -23 -15 0 -13 -3 -24 -6
-24 -9 0 -39 33 -40 44 -1 22 -26 76 -33 72 -4 -3 -17 -25 -30 -51 -22 -45
-22 -47 -5 -60 11 -9 14 -14 7 -15 -7 0 -22 9 -33 20 -19 19 -26 52 -22 108 1
17 -3 22 -13 18 -8 -3 -15 -1 -15 3 0 5 4 11 9 13 5 2 -5 31 -24 66 l-33 63
-20 -33 c-14 -21 -18 -36 -12 -42 15 -15 12 -26 -4 -20 -8 3 -16 15 -19 26 -6
22 -32 20 -32 -3 0 -8 -11 -16 -24 -17 -18 -3 -22 0 -18 12 3 8 2 18 -3 21 -6
4 -10 18 -10 33 l-1 27 -16 -30 c-9 -16 -15 -32 -14 -34 2 -2 -3 -8 -11 -12
-11 -7 -11 -9 1 -9 10 0 11 -4 3 -12 -6 -7 -10 -17 -10 -21 0 -5 -3 -11 -6
-14 -6 -6 -10 11 -7 33 0 6 -7 27 -17 47 l-17 36 -34 -76 -35 -76 -18 23 c-10
12 -18 28 -18 36 0 26 -16 14 -38 -26 -12 -22 -19 -46 -16 -54 3 -7 -3 -19
-12 -27 -10 -8 -15 -9 -11 -3 4 7 0 14 -8 18 -8 3 -15 17 -15 31 0 14 -14 53
-31 87 -28 55 -32 60 -42 42 -17 -30 -47 -158 -63 -264 -3 -25 -13 -51 -22
-58 -9 -6 -12 -13 -6 -14 5 0 14 -2 19 -3 6 -2 14 -3 19 -4 4 0 -3 -16 -18
-35 -14 -19 -26 -41 -26 -49 0 -22 -23 -37 -48 -30 -22 5 -59 63 -41 63 6 0 8
4 4 9 -3 5 -1 12 5 16 5 3 10 14 10 25 0 20 26 35 35 20 12 -19 26 -10 15 9
-5 11 -10 33 -10 50 0 16 -4 32 -9 35 -8 5 -22 58 -26 98 -1 10 -7 24 -14 31
-6 8 -8 17 -4 21 13 13 9 45 -6 51 -13 5 -14 7 -1 15 11 7 11 10 2 10 -7 0
-12 6 -10 13 3 16 -11 57 -20 57 -12 0 -31 -51 -25 -66 4 -10 -2 -14 -21 -14
-14 0 -26 3 -27 8 -1 4 -2 21 -4 37 -3 35 -35 100 -35 73 0 -10 -4 -18 -9 -18
-5 0 -8 11 -8 25 0 44 -19 49 -26 7 -5 -34 -14 -36 -31 -5 -8 16 -21 35 -30
42 -13 11 -16 6 -26 -28 -6 -23 -15 -41 -20 -41 -5 0 -7 -13 -3 -30 3 -18 1
-30 -5 -30 -5 0 -8 -9 -5 -20 3 -11 1 -20 -5 -20 -6 0 -9 -11 -6 -25 3 -17 0
-25 -10 -25 -8 0 -18 -9 -21 -20 -3 -11 -11 -20 -16 -20 -6 0 -7 -9 -4 -20 3
-11 2 -20 -3 -20 -12 0 -56 134 -50 151 3 8 -1 27 -10 44 -10 20 -11 30 -3 33
6 2 9 7 6 12 -3 4 -7 25 -11 46 -10 64 -21 83 -46 81 -24 -2 -57 -33 -58 -54
0 -23 -15 -13 -40 27 -14 22 -29 39 -34 37 -13 -4 -56 -84 -49 -91 4 -3 1 -6
-5 -6 -7 0 -12 3 -12 8 0 4 -12 19 -25 35 -21 24 -27 26 -45 15 -11 -7 -20
-20 -20 -29 0 -9 -7 -22 -15 -29 -22 -19 -37 -1 -44 51 -1 3 -14 20 -30 37
-24 28 -30 30 -41 17 -16 -19 -30 -10 -30 21 0 13 -4 24 -10 24 -5 0 -10 -9
-10 -19 0 -11 -4 -23 -10 -26 -5 -3 -8 -19 -6 -35 5 -41 -5 -37 -29 11 -17 35
-21 39 -31 24 -7 -9 -20 -43 -30 -75 -11 -33 -22 -60 -26 -60 -5 0 -8 -8 -8
-18 0 -10 -3 -21 -6 -25 -11 -10 -31 17 -26 35 3 11 -1 18 -10 18 -10 0 -13 8
-10 29 3 23 -20 91 -32 91 -2 0 -13 -27 -25 -60 -12 -32 -26 -62 -32 -65 -5
-4 -8 -3 -7 2 4 13 -24 83 -33 83 -4 0 -10 -18 -14 -40 -4 -22 -10 -40 -15
-40 -14 0 -32 28 -21 34 6 4 3 18 -6 37 l-16 32 -12 -24 c-7 -12 -11 -29 -8
-36 3 -7 -2 -13 -10 -13 -9 0 -18 -13 -22 -30 -5 -23 -12 -30 -31 -30 -14 0
-24 6 -24 14 0 8 -5 27 -12 43 -6 15 -11 31 -10 36 1 4 -2 7 -7 7 -5 0 -8 11
-8 24 -1 32 -23 96 -34 96 -10 0 -26 -36 -32 -72 -1 -13 -8 -33 -15 -44 -6
-12 -9 -24 -6 -27 3 -3 -2 -16 -10 -29 -9 -14 -13 -28 -9 -33 5 -4 -2 -5 -13
-1 -22 7 -33 -10 -39 -58 -1 -10 -7 -21 -12 -25 -5 -3 -12 -14 -16 -23 -7 -20
-15 -22 -36 -9 -12 8 -12 12 -2 25 11 13 11 16 -2 16 -8 0 -17 7 -21 15 -4 12
0 14 18 9 13 -3 27 -1 30 5 4 6 0 11 -9 11 -20 0 -32 30 -15 40 11 7 10 11 -2
24 -9 9 -13 25 -11 40 4 20 1 26 -11 26 -11 0 -14 4 -9 12 4 7 8 25 9 40 2 21
-1 25 -14 21 -15 -6 -14 -3 2 15 18 21 18 21 -8 28 -18 4 -26 13 -26 28 0 12
-6 30 -13 40 -13 17 -14 16 -26 -13 -7 -17 -11 -37 -8 -46 4 -8 2 -17 -3 -20
-5 -3 -7 -12 -3 -20 4 -11 0 -14 -13 -9 -11 3 -9 -1 6 -10 25 -16 25 -16 -12
-11 -31 3 -40 0 -50 -18 -7 -12 -11 -28 -9 -36 4 -23 -18 -1 -35 34 -9 19 -23
35 -31 35 -11 0 -14 7 -10 21 4 15 -1 23 -20 30 -31 12 -45 -3 -37 -38 4 -14
-2 -29 -18 -45 -12 -12 -22 -26 -21 -30 2 -5 -6 -8 -16 -8 -14 0 -18 5 -14 20
3 13 -5 29 -25 50 -17 16 -33 30 -36 30 -9 0 -30 -52 -27 -67 1 -7 -8 -13 -21
-13 -17 0 -19 -3 -10 -12 18 -18 15 -51 -3 -44 -8 3 -14 2 -14 -2 1 -4 1 -14
0 -22 -1 -12 -5 -11 -16 4 -8 10 -12 22 -10 26 3 5 -2 25 -11 46 -11 27 -18
34 -24 24 -6 -10 -12 -4 -23 21 -10 23 -11 38 -4 47 7 9 4 19 -13 34 -20 19
-20 22 -6 30 19 11 21 28 3 28 -8 0 -14 12 -14 30 0 18 -7 36 -19 44 -10 8
-19 27 -20 43 -1 15 -12 51 -24 78 l-22 50 -16 -42 c-21 -51 -32 -63 -32 -34
0 12 -13 46 -29 76 -29 53 -41 54 -41 4 0 -31 -20 -22 -36 17 -21 50 -43 72
-54 54 -7 -11 -12 -7 -21 13 -14 32 -28 35 -30 7 -3 -39 -4 -43 -17 -48 -7 -2
-17 9 -23 27 -6 17 -15 29 -20 26 -4 -3 -6 -12 -3 -19 3 -8 0 -17 -5 -21 -6
-3 -9 -11 -6 -16 4 -5 3 -9 -2 -9 -18 0 -29 16 -31 45 -1 16 -6 33 -11 38 -10
10 -15 -5 -26 -67 -6 -35 -16 -42 -21 -13 -1 7 -8 26 -14 42 l-13 30 -11 -35
c-15 -47 -40 -82 -57 -78 -8 2 -15 -7 -16 -22 -13 -108 -13 -110 -36 -106 -13
1 -28 15 -36 32 -7 16 -24 40 -37 54 -13 14 -31 48 -40 75 -21 63 -42 89 -60
74 -8 -7 -11 -22 -7 -40 6 -31 -3 -79 -15 -79 -11 1 -62 85 -62 103 0 19 -26
41 -40 32 -6 -4 -17 -2 -24 4 -10 8 -17 6 -31 -8z m335 -361 c0 -5 -4 -10 -10
-10 -5 0 -10 5 -10 10 0 6 5 10 10 10 6 0 10 -4 10 -10z m-15 -28 c16 -12 16
-39 0 -39 -8 0 -15 4 -15 8 0 4 -3 14 -6 23 -6 17 4 21 21 8z m818 -259 c-7
-3 -13 -11 -13 -19 0 -16 -16 -19 -25 -4 -3 6 -1 10 5 10 6 0 9 4 5 9 -3 5 3
11 12 13 21 5 34 -3 16 -9z m1567 3 c0 -3 -4 -8 -10 -11 -5 -3 -10 -1 -10 4 0
6 5 11 10 11 6 0 10 -2 10 -4z m5 -106 c3 -5 1 -10 -4 -10 -6 0 -11 5 -11 10
0 6 2 10 4 10 3 0 8 -4 11 -10z m5 -50 c12 -8 11 -10 -7 -10 -13 0 -23 5 -23
10 0 13 11 13 30 0z m1460 -284 c0 -7 -6 -13 -14 -13 -8 0 -14 8 -13 18 1 19
27 14 27 -5z m622 -148 c-7 -7 -12 -8 -12 -2 0 14 12 26 19 19 2 -3 -1 -11 -7
-17z m648 -28 c0 -5 -2 -10 -4 -10 -3 0 -8 5 -11 10 -3 6 -1 10 4 10 6 0 11
-4 11 -10z m-3565 -115 c14 -3 25 -1 25 5 0 13 37 13 45 -1 4 -5 18 -14 31
-19 38 -15 31 -48 -13 -67 -21 -8 -52 -31 -68 -51 -31 -35 -31 -35 -53 -16
-12 10 -22 24 -22 32 0 7 -8 30 -18 51 -23 48 -12 83 24 76 13 -3 35 -7 49
-10z"></path>
</g>
</svg>